<svg width="35" height="56" viewBox="0 0 155 56" fill="none" xmlns="http://www.w3.org/2000/svg">
          <path d="M75.6356 12.5821V15H66.9629V0H75.4664V2.41791H69.3743V6.1791H74.5357V8.55224H69.332V12.5821H75.6356Z" fill="#4520AB" />
          <path d="M87.1996 14.0323C86.7966 14.3402 86.3129 14.5601 85.7487 14.7361C85.1844 14.912 84.5798 15 83.935 15C82.7258 15 81.7988 14.5601 81.1943 13.7243C80.5897 12.8886 80.3076 11.7449 80.3076 10.2933V2.37537H76.5996V0H82.6049V9.98534C82.6049 10.8211 82.7662 11.437 83.0483 11.9208C83.3304 12.3607 83.7335 12.6246 84.2574 12.6246C85.1038 12.6246 85.9502 12.3167 86.7966 11.7449L87.1996 14.0323Z" fill="#4520AB" />
          <path d="M96.6174 4.58824C97.2247 4.98529 97.7511 5.60294 98.156 6.44118C98.5609 7.27941 98.7633 8.29412 98.7633 9.48529C98.7633 10.6765 98.5609 11.7353 98.156 12.5294C97.7511 13.3676 97.2247 13.9853 96.5769 14.3824C95.9696 14.7794 95.3218 15 94.6739 15C93.1758 15 92.1231 14.25 91.5158 12.7059C91.4753 13.8529 91.4348 14.5147 91.4348 14.7794H89.127C89.6533 12.8382 89.9367 10.8088 89.9367 8.69118V0H92.2446L92.1231 5.33824C92.7305 4.45588 93.6212 4.01471 94.7954 4.01471C95.4027 4.01471 96.0101 4.19118 96.6174 4.58824ZM95.9291 11.8235C96.2935 11.2941 96.4959 10.5 96.4959 9.48529C96.4959 8.47059 96.2935 7.67647 95.8886 7.14706C95.4837 6.61765 94.9574 6.35294 94.3095 6.35294C93.6617 6.35294 93.1758 6.66176 92.8114 7.23529C92.447 7.80882 92.2851 8.55882 92.2851 9.48529C92.2851 10.4118 92.447 11.1618 92.8114 11.7353C93.1758 12.3088 93.7022 12.6176 94.3905 12.6176C95.0383 12.6176 95.5647 12.3529 95.9291 11.8235Z" fill="#4520AB" />
          <path d="M109.362 9.14228H107.084C107.084 7.35366 106.684 6.45935 105.925 6.45935C105.206 6.45935 104.686 6.95122 104.326 7.97967C103.967 9.00813 103.767 10.3496 103.767 12.0041V15H101.489V10.2154C101.489 9.32114 101.409 8.29268 101.249 7.13008C101.089 6.0122 100.929 5.02846 100.689 4.22358H102.728C102.808 4.80488 102.888 5.78862 102.968 7.1748C103.247 6.19106 103.647 5.38618 104.207 4.84959C104.766 4.31301 105.445 4 106.245 4C107.724 4 108.643 4.80488 109.082 6.36992C109.282 7.04065 109.362 7.93496 109.362 9.14228Z" fill="#4520AB" />
          <path d="M117.588 14.7755L117.508 11.9469C117.231 12.8898 116.835 13.6531 116.32 14.1918C115.806 14.7306 115.212 15 114.499 15C113.113 15 112.162 14.3265 111.727 12.9347C111.41 11.9469 111.291 10.7347 111.291 9.29796V4H113.548V8.84898C113.548 10.1959 113.627 11.1388 113.786 11.6327C113.905 11.9469 114.024 12.1714 114.182 12.351C114.34 12.4857 114.538 12.5755 114.816 12.5755C115.528 12.5755 116.043 12.0816 116.4 11.1388C116.716 10.1959 116.914 8.93878 116.914 7.41224V4H119.172V8.53469C119.172 10.6898 119.449 12.7551 119.964 14.7306H117.588V14.7755Z" fill="#4520AB" />
          <path d="M130.032 9.96386C130.359 10.4498 130.563 11.0683 130.563 11.7751C130.563 12.747 130.195 13.5422 129.459 14.1165C128.722 14.6908 127.822 15 126.677 15C125.736 15 124.836 14.8233 123.936 14.4699C123.036 14.1165 122.382 13.6305 121.891 12.9679L123.363 11.3333C124.141 12.1727 125.245 12.6145 126.677 12.6145C127.25 12.6145 127.618 12.5261 127.863 12.3494C128.109 12.1727 128.232 11.9518 128.232 11.7309C128.232 11.5542 128.15 11.4217 128.027 11.2892C127.904 11.1566 127.7 11.0683 127.413 10.9799L124.468 9.96386C122.913 9.43373 122.136 8.50602 122.136 7.13655C122.136 6.07631 122.504 5.28112 123.282 4.751C124.018 4.22088 125 4 126.227 4C127.045 4 127.782 4.13253 128.477 4.39759C129.172 4.66265 129.745 5.01606 130.154 5.50201L128.722 7.26908C128.395 6.95984 127.986 6.73896 127.536 6.60643C127.086 6.4739 126.636 6.38554 126.227 6.38554C125.082 6.38554 124.468 6.60643 124.468 7.09237C124.468 7.26908 124.55 7.40161 124.672 7.48996C124.795 7.62249 125 7.71084 125.286 7.84337L128.232 8.85944C129.132 9.1245 129.704 9.47791 130.032 9.96386Z" fill="#4520AB" />
          <path d="M75.6356 31.4378C75.047 32.3213 74.4583 32.9839 73.8304 33.3815C73.2025 33.7791 72.4569 34 71.5936 34C70.8087 34 70.0631 33.7791 69.3567 33.3815C68.6503 32.9839 68.0617 32.3655 67.63 31.5261C67.1983 30.6867 66.9629 29.6707 66.9629 28.4779C66.9629 27.241 67.1591 26.2249 67.5908 25.3855C68.0225 24.5462 68.5719 23.9719 69.239 23.5743C69.9061 23.1767 70.6125 23 71.3974 23C72.2215 23 72.9671 23.1767 73.5557 23.5301C74.1444 23.8835 74.733 24.4578 75.3609 25.253L73.7127 26.7108C73.3595 26.2691 73.0456 25.9157 72.7316 25.6948C72.4177 25.4739 72.0253 25.3855 71.5543 25.3855C70.848 25.3855 70.2986 25.6506 69.8669 26.1807C69.4352 26.7108 69.239 27.506 69.239 28.5221C69.239 29.5382 69.4744 30.2892 69.9454 30.8193C70.4163 31.3494 71.0442 31.6145 71.7506 31.6145C72.1822 31.6145 72.5747 31.4819 72.9278 31.261C73.281 31.0402 73.6342 30.6426 73.9874 30.0683L75.6356 31.4378Z" fill="#4520AB" />
          <path d="M84.0084 23.5819C84.6726 23.9809 85.2195 24.6016 85.6102 25.4439C86.0399 26.2862 86.2352 27.3058 86.2352 28.5028C86.2352 29.6998 86.0399 30.7637 85.6102 31.5617C85.1804 32.404 84.6726 33.0247 84.0084 33.4237C83.3443 33.8227 82.6411 34 81.8989 34C81.1566 34 80.4534 33.8227 79.7893 33.4237C79.1252 33.0247 78.5782 32.404 78.1876 31.5617C77.7578 30.7194 77.5625 29.6998 77.5625 28.5028C77.5625 27.3058 77.7578 26.2419 78.1876 25.4439C78.6173 24.6016 79.1252 23.9809 79.7893 23.5819C80.4534 23.1829 81.1566 23.0056 81.8989 23.0056C82.6411 22.9613 83.3443 23.1829 84.0084 23.5819ZM83.4615 30.8524C83.8522 30.3204 84.0084 29.5224 84.0084 28.5028C84.0084 27.4832 83.8131 26.6852 83.4224 26.1532C83.0318 25.6212 82.5239 25.3552 81.8598 25.3552C81.1566 25.3552 80.6487 25.6212 80.2581 26.1532C79.8674 26.6852 79.7111 27.4832 79.7111 28.5028C79.7111 29.5224 79.9065 30.3204 80.2971 30.8524C80.6878 31.3844 81.1957 31.6504 81.8598 31.6504C82.563 31.6504 83.1099 31.3844 83.4615 30.8524Z" fill="#4520AB" />
          <path d="M95.4599 33.7801C95.4599 33.5161 95.4196 32.8123 95.3793 31.7126C94.7745 33.2522 93.7262 34 92.2344 34C91.5086 34 90.8635 33.824 90.2184 33.4721C89.6136 33.1202 89.1298 32.5044 88.7266 31.7126C88.3637 30.8768 88.1621 29.8211 88.1621 28.5455C88.1621 27.4457 88.3637 26.478 88.7669 25.6422C89.1701 24.8065 89.6943 24.1906 90.299 23.7507C90.9038 23.3109 91.549 23.0909 92.1537 23.0909C93.2827 23.0909 94.1697 23.5308 94.8148 24.4545L94.6939 19H96.9921V27.6657C96.9921 29.7771 97.2743 31.8006 97.7985 33.7361H95.4599V33.7801ZM94.1294 30.7449C94.4923 30.173 94.6536 29.4252 94.6536 28.5015C94.6536 27.6217 94.4923 26.8739 94.1294 26.2581C93.7665 25.6862 93.2827 25.3783 92.6376 25.3783C91.9925 25.3783 91.5086 25.6422 91.0651 26.1701C90.6619 26.6979 90.4603 27.4897 90.4603 28.5015C90.4603 29.5132 90.6619 30.305 91.0248 30.8328C91.3877 31.3607 91.9118 31.6246 92.5166 31.6246C93.2424 31.6246 93.7665 31.3167 94.1294 30.7449Z" fill="#4520AB" />
          <path d="M108.399 31.5866V34H99.7266V31.5866H103.212V25.6872H100.091V23.2737H105.481V31.5866H108.399ZM103.171 18.5363C103.455 18.1788 103.86 18 104.306 18C104.752 18 105.117 18.1788 105.441 18.5363C105.725 18.8939 105.887 19.3855 105.887 19.9218C105.887 20.4581 105.725 20.9497 105.441 21.2626C105.157 21.6201 104.752 21.7989 104.306 21.7989C103.86 21.7989 103.496 21.6201 103.171 21.2626C102.847 20.905 102.726 20.4134 102.726 19.8771C102.726 19.3408 102.888 18.8939 103.171 18.5363Z" fill="#4520AB" />
          <path d="M118.999 28.7469V34H116.742V29.151C116.742 27.8041 116.662 26.8612 116.504 26.3673C116.385 26.0531 116.266 25.8286 116.108 25.649C115.95 25.5143 115.752 25.4245 115.474 25.4245C114.762 25.4245 114.247 25.8735 113.89 26.7265C113.573 27.6245 113.375 28.7918 113.375 30.3184V33.9551H111.118V29.2408C111.118 27.2204 110.841 25.2 110.326 23.2245H112.583C112.583 23.6735 112.623 24.5714 112.663 25.9633C112.94 25.0204 113.336 24.302 113.851 23.7633C114.366 23.2694 114.96 23 115.672 23C117.058 23 118.009 23.6735 118.444 25.0653C118.84 26.0531 118.999 27.2653 118.999 28.7469Z" fill="#4520AB" />
          <path d="M130.562 23.1744C130.034 25.093 129.749 27.0552 129.749 29.0174V32.5058C129.749 34.4244 129.383 35.8198 128.61 36.6919C127.879 37.564 126.821 38 125.48 38C124.829 38 124.138 37.9128 123.406 37.6948C122.674 37.4767 122.105 37.1279 121.658 36.6919L122.105 34.4244C122.512 34.7733 122.999 35.0349 123.569 35.2529C124.138 35.4709 124.707 35.5581 125.276 35.5581C126.008 35.5581 126.577 35.3401 126.903 34.8605C127.228 34.3808 127.431 33.6831 127.431 32.6802V32.157C126.821 32.9855 126.008 33.4215 124.992 33.4215C124.341 33.4215 123.691 33.2471 123.081 32.8547C122.471 32.5058 121.942 31.8954 121.536 31.1105C121.129 30.3256 120.926 29.3663 120.926 28.189C120.926 27.0552 121.129 26.0959 121.576 25.311C121.983 24.5262 122.512 23.9157 123.162 23.5669C123.772 23.1744 124.382 23 124.992 23C125.764 23 126.456 23.218 126.984 23.6977C127.513 24.1773 127.919 24.8314 128.204 25.7035C128.204 25.3983 128.204 24.9622 128.245 24.3953V23.1744H130.562ZM126.903 30.282C127.269 29.7587 127.431 29.061 127.431 28.2326C127.431 27.4041 127.269 26.7064 126.903 26.1831C126.537 25.6599 126.049 25.3547 125.398 25.3547C124.748 25.3547 124.26 25.6163 123.813 26.0959C123.406 26.5756 123.203 27.3169 123.203 28.2326C123.203 29.1919 123.406 29.9331 123.772 30.4128C124.138 30.8924 124.666 31.1541 125.276 31.1541C126.008 31.0669 126.577 30.8052 126.903 30.282Z" fill="#4520AB" />
          <path d="M73.4904 42.3108C74.0978 42.6804 74.6241 43.2551 75.029 44.0352C75.4339 44.8152 75.6364 45.7595 75.6364 46.868C75.6364 47.9765 75.4339 48.9619 75.029 49.7009C74.6241 50.4809 74.0978 51.0557 73.45 51.4252C72.8426 51.7947 72.1948 52 71.547 52C70.0489 52 68.9962 51.3021 68.3888 49.8651C68.3484 50.9325 68.3079 51.5484 68.3079 51.7947H66C66.5264 49.9883 66.8098 48.0997 66.8098 46.129V38H69.1176L68.9557 42.9677C69.563 42.1466 70.4538 41.7361 71.628 41.7361C72.2353 41.7361 72.8831 41.9413 73.4904 42.3108ZM72.8021 49.044C73.1665 48.5513 73.369 47.8123 73.369 46.868C73.369 45.9238 73.1665 45.1848 72.7616 44.6921C72.3568 44.1994 71.8304 43.9531 71.1826 43.9531C70.5348 43.9531 70.0489 44.2405 69.6845 44.7742C69.3201 45.3079 69.1581 46.0059 69.1581 46.868C69.1581 47.7302 69.3201 48.4282 69.6845 48.9619C70.0489 49.4956 70.5752 49.783 71.2636 49.783C71.9114 49.783 72.3973 49.5367 72.8021 49.044Z" fill="#4520AB" />
          <path d="M84.0104 42.529C84.6745 42.8917 85.2215 43.456 85.6121 44.2217C86.0419 44.9874 86.2372 45.9144 86.2372 47.0025C86.2372 48.0907 86.0419 49.0579 85.6121 49.7834C85.1824 50.5491 84.6745 51.1134 84.0104 51.4761C83.3463 51.8388 82.6431 52 81.9008 52C81.1586 52 80.4554 51.8388 79.7912 51.4761C79.1271 51.1134 78.5802 50.5491 78.1895 49.7834C77.7598 49.0176 77.5645 48.0907 77.5645 47.0025C77.5645 45.9144 77.7598 44.9471 78.1895 44.2217C78.6192 43.456 79.1271 42.8917 79.7912 42.529C80.4554 42.1663 81.1586 42.0051 81.9008 42.0051C82.6431 41.9648 83.3463 42.1663 84.0104 42.529ZM83.4635 49.1386C83.8541 48.6549 84.0104 47.9295 84.0104 47.0025C84.0104 46.0756 83.8151 45.3502 83.4244 44.8665C83.0337 44.3829 82.5259 44.1411 81.8618 44.1411C81.1586 44.1411 80.6507 44.3829 80.26 44.8665C79.8694 45.3502 79.7131 46.0756 79.7131 47.0025C79.7131 47.9295 79.9084 48.6549 80.2991 49.1386C80.6898 49.6222 81.1976 49.864 81.8618 49.864C82.5649 49.864 83.1119 49.6222 83.4635 49.1386Z" fill="#4520AB" />
          <path d="M95.5729 42.529C96.237 42.8917 96.784 43.456 97.1746 44.2217C97.6044 44.9874 97.7997 45.9144 97.7997 47.0025C97.7997 48.0907 97.6044 49.0579 97.1746 49.7834C96.7449 50.5491 96.237 51.1134 95.5729 51.4761C94.9088 51.8388 94.2056 52 93.4633 52C92.7211 52 92.0179 51.8388 91.3537 51.4761C90.6896 51.1134 90.1427 50.5491 89.752 49.7834C89.3223 49.0176 89.127 48.0907 89.127 47.0025C89.127 45.9144 89.3223 44.9471 89.752 44.2217C90.1817 43.456 90.6896 42.8917 91.3537 42.529C92.0179 42.1663 92.7211 42.0051 93.4633 42.0051C94.2056 41.9648 94.9088 42.1663 95.5729 42.529ZM95.026 49.1386C95.4166 48.6549 95.5729 47.9295 95.5729 47.0025C95.5729 46.0756 95.3776 45.3502 94.9869 44.8665C94.5962 44.3829 94.0884 44.1411 93.4243 44.1411C92.7211 44.1411 92.2132 44.3829 91.8225 44.8665C91.4319 45.3502 91.2756 46.0756 91.2756 47.0025C91.2756 47.9295 91.4709 48.6549 91.8616 49.1386C92.2523 49.6222 92.7601 49.864 93.4243 49.864C94.1274 49.864 94.6353 49.6222 95.026 49.1386Z" fill="#4520AB" />
          <path d="M109.363 51.1278C108.929 51.4185 108.415 51.6262 107.823 51.7923C107.23 51.9585 106.598 52 105.967 52C104.703 52 103.755 51.6262 103.083 50.8371C102.412 50.0479 102.096 49.0511 102.096 47.7636V44.0671H99.7266V41.8243H102.096C102.491 41.1597 102.689 40.2045 102.768 39H104.308V41.8243H109.047V44.0671H104.308V47.5559C104.308 49.0096 104.94 49.7572 106.203 49.7572C106.638 49.7572 107.112 49.6741 107.586 49.5495C108.06 49.4249 108.534 49.2173 108.968 48.9265L109.363 51.1278Z" fill="#4520AB" />
          <path d="M119.964 49.6707C119.375 50.4739 118.786 51.0763 118.159 51.4378C117.531 51.7992 116.785 52 115.922 52C115.137 52 114.391 51.7992 113.685 51.4378C112.978 51.0763 112.39 50.5141 111.958 49.751C111.526 48.9879 111.291 48.0643 111.291 46.9799C111.291 45.8554 111.487 44.9317 111.919 44.1687C112.351 43.4056 112.9 42.8835 113.567 42.5221C114.234 42.1606 114.941 42 115.725 42C116.55 42 117.295 42.1606 117.884 42.4819C118.473 42.8032 119.061 43.3253 119.689 44.0482L118.041 45.3735C117.688 44.9719 117.374 44.6506 117.06 44.4498C116.746 44.249 116.353 44.1687 115.882 44.1687C115.176 44.1687 114.627 44.4096 114.195 44.8916C113.763 45.3735 113.567 46.0964 113.567 47.0201C113.567 47.9438 113.803 48.6265 114.273 49.1084C114.744 49.5904 115.372 49.8313 116.079 49.8313C116.51 49.8313 116.903 49.7108 117.256 49.51C117.609 49.3092 117.962 48.9478 118.316 48.4257L119.964 49.6707Z" fill="#4520AB" />
          <path d="M129.17 51.7992C129.128 51.3574 129.087 50.5542 129.087 49.4297C128.715 50.2329 128.218 50.8755 127.598 51.3173C126.978 51.759 126.233 52 125.241 52C124.538 52 123.917 51.8795 123.421 51.6386C122.925 51.3976 122.511 51.1165 122.263 50.7149C122.015 50.3534 121.891 49.9116 121.891 49.4699C121.891 48.7068 122.097 48.0643 122.552 47.502C123.007 46.9799 123.586 46.5783 124.331 46.2972C125.075 46.0161 125.861 45.8956 126.729 45.8956C127.267 45.8956 127.805 45.9357 128.384 46.0562C128.384 45.4137 128.218 44.9317 127.846 44.6104C127.474 44.2892 127.019 44.1285 126.44 44.1285C125.447 44.1285 124.496 44.4096 123.669 44.9317L122.263 43.2851C123.007 42.8032 123.71 42.4418 124.413 42.2811C125.075 42.0803 125.82 42 126.564 42C127.888 42 128.921 42.3614 129.625 43.0843C130.328 43.8072 130.7 45.0924 130.7 46.8996V47.5422C130.7 48.6265 130.989 50.0321 131.527 51.7992H129.17ZM127.308 49.3896C127.846 49.1084 128.218 48.6265 128.384 48.0241C127.97 47.9438 127.515 47.9036 126.978 47.9036C126.15 47.9036 125.489 48.0241 125.034 48.2651C124.538 48.506 124.289 48.8273 124.289 49.1888C124.289 49.3896 124.413 49.5502 124.662 49.6707C124.91 49.7912 125.199 49.8313 125.571 49.8313C126.15 49.8313 126.729 49.6707 127.308 49.3896Z" fill="#4520AB" />
          <path d="M142.57 42.898C142.93 43.4694 143.09 44.4082 143.09 45.6735V52H140.81V46.0408C140.81 45.3469 140.77 44.8571 140.69 44.6122C140.61 44.3673 140.45 44.2041 140.25 44.2041C139.89 44.2041 139.65 44.5306 139.53 45.1837C139.41 45.8367 139.33 46.8571 139.33 48.2857V52H137.05V46.0408C137.05 45.3469 137.01 44.8571 136.93 44.6122C136.85 44.3673 136.69 44.2041 136.49 44.2041C136.13 44.2041 135.89 44.5306 135.77 45.1837C135.65 45.8367 135.57 46.8571 135.57 48.2857V52H133.29V46.4898C133.29 45.7959 133.21 45.1429 133.09 44.449C132.97 43.7959 132.77 43.0204 132.49 42.2041H134.77C134.85 42.5714 134.89 43.2245 134.89 44.1633C135.09 43.4694 135.37 42.9388 135.73 42.5714C136.09 42.2041 136.53 42 137.09 42C137.57 42 137.97 42.0816 138.29 42.2857C138.61 42.4898 138.85 42.8163 139.01 43.2653C139.45 42.4082 140.05 42 140.85 42C141.65 42.0408 142.25 42.3265 142.57 42.898Z" fill="#4520AB" />
          <path d="M152.508 42.5748C153.115 42.9443 153.642 43.5191 154.047 44.2991C154.451 45.0792 154.654 46.0235 154.654 47.132C154.654 48.2405 154.451 49.2258 154.047 49.9648C153.642 50.7449 153.115 51.3196 152.468 51.6892C151.86 52.0587 151.212 52.2639 150.565 52.2639C149.552 52.2639 148.743 51.9355 148.135 51.2786V56H145.827V47.7067C145.827 45.8592 145.544 44.0117 145.018 42.2053H147.325C147.325 42.6979 147.325 43.3959 147.366 44.217C147.649 43.5191 148.095 42.9853 148.621 42.5748C149.147 42.2053 149.795 42 150.605 42C151.253 42 151.901 42.2053 152.508 42.5748ZM151.82 49.3079C152.184 48.8152 152.387 48.0762 152.387 47.132C152.387 46.1877 152.184 45.4487 151.779 44.956C151.374 44.4633 150.848 44.217 150.2 44.217C149.552 44.217 149.066 44.5044 148.702 45.0381C148.338 45.5718 148.176 46.2698 148.176 47.132C148.176 47.9941 148.338 48.6921 148.702 49.2258C149.066 49.7595 149.593 50.0469 150.281 50.0469C150.929 50.0469 151.455 49.8006 151.82 49.3079Z" fill="#4520AB" />
          <path d="M54 0H0V54H54V0Z" fill="#4520AB" />
          <path d="M13.5002 9.87419H11.038V11.4143H13.3997V11.9423H11.038V14.0104H13.4499V14.5385H10.3848V9.34616H13.4499V9.87419H13.5002Z" fill="white" />
          <path d="M20.3174 9.34616V14.0104H21.8074V14.5385H19.7305V9.34616H20.3174Z" fill="white" />
          <path d="M31.0182 9.34616C31.3343 9.34616 31.831 9.39016 32.2373 9.65418C32.4179 9.78619 32.734 10.0942 32.734 10.7102C32.734 10.9743 32.6888 11.4143 32.1922 11.7223C32.9146 11.8983 33.2306 12.5143 33.2306 13.0424C33.2306 13.5704 32.9597 13.9664 32.6888 14.1864C32.2825 14.4945 31.7858 14.5385 31.4246 14.5385H30.1152V9.34616H31.0182ZM30.657 11.6343H31.1085C31.4246 11.6343 32.147 11.5903 32.147 10.7542C32.147 9.9182 31.2891 9.87419 31.1085 9.87419H30.657V11.6343ZM30.657 14.0104H31.3343C31.6955 14.0104 32.0116 13.9664 32.2825 13.7904C32.5082 13.6584 32.6437 13.3944 32.6437 13.0864C32.6437 12.6904 32.4179 12.4263 32.1922 12.3383C32.0116 12.2503 31.6955 12.1623 31.2891 12.1623H30.7022V14.0104H30.657Z" fill="white" />
          <path d="M40.2856 9.34616C40.6521 9.34616 41.2019 9.38979 41.6142 9.65159C41.9349 9.86976 42.2098 10.2625 42.2098 10.786C42.2098 11.5714 41.66 12.1387 40.8354 12.2259L42.5763 14.5385H41.8433L40.194 12.2259H40.0565V14.4948H39.4609V9.34616H40.2856ZM40.0107 11.746H40.3772C41.1103 11.746 41.5684 11.3969 41.5684 10.786C41.5684 10.4806 41.4768 10.2188 41.1561 10.0443C40.927 9.91339 40.6521 9.91339 40.3772 9.91339H40.0107V11.746Z" fill="white" />
          <path d="M9.90202 22.8463C9.90202 23.279 9.90202 23.755 10.2358 24.1011C10.4213 24.2742 10.718 24.404 10.9405 24.404C11.163 24.404 11.4968 24.2742 11.6452 24.1011C11.9789 23.755 11.9789 23.279 11.9789 22.8463V19.7309H12.4611V23.0194C12.4611 23.4521 12.424 23.8415 12.2015 24.2309C11.9419 24.6636 11.4968 24.9232 10.9034 24.9232C10.3471 24.9232 9.90202 24.6636 9.60532 24.2309C9.38279 23.8415 9.3457 23.4521 9.3457 23.0194V19.7309H9.82785V22.8463H9.90202Z" fill="white" />
          <path d="M22.2565 19.8414C22.1723 19.7137 22.0881 19.5435 21.9618 19.4584C21.8776 19.3732 21.6671 19.2881 21.4145 19.2881C20.9093 19.2881 20.5725 19.586 20.5725 20.0542C20.5725 20.267 20.6146 20.3521 20.7409 20.4798C20.9093 20.65 21.0777 20.6926 21.2461 20.7777L21.7092 20.9905C22.0039 21.1182 22.2565 21.2459 22.467 21.4587C22.7196 21.714 22.8459 22.012 22.8459 22.3524C22.8459 23.2888 22.1723 23.8846 21.2882 23.8846C20.9514 23.8846 20.5304 23.7995 20.1936 23.459C19.941 23.2036 19.8147 22.8632 19.7305 22.5652L20.2778 22.395C20.3199 22.6504 20.4462 22.9057 20.5725 23.0334C20.783 23.2462 21.0356 23.3313 21.2882 23.3313C21.9618 23.3313 22.2986 22.8206 22.2986 22.3524C22.2986 22.1396 22.2144 21.9268 22.046 21.7566C21.9197 21.6289 21.7092 21.5438 21.4566 21.4161L20.9935 21.2033C20.783 21.1182 20.5725 20.9905 20.3199 20.7777C20.1094 20.5649 19.9831 20.3521 19.9831 19.9691C19.9831 19.203 20.5725 18.6923 21.3724 18.6923C21.6671 18.6923 21.9197 18.7349 22.1723 18.9051C22.3828 19.0328 22.5512 19.2456 22.6775 19.4584L22.2565 19.8414Z" fill="white" />
          <path d="M32.8104 18.6923L33.23 18.9139L29.4958 25.9615L29.0762 25.7399L32.8104 18.6923Z" fill="white" />
          <path d="M11.2878 29.0771C11.6038 29.0771 12.1005 29.1211 12.5068 29.3851C12.6874 29.5171 13.0035 29.8252 13.0035 30.4412C13.0035 30.7052 12.9583 31.1452 12.4617 31.4533C13.1841 31.6293 13.5002 32.2453 13.5002 32.7733C13.5002 33.2574 13.2292 33.6974 12.9583 33.9174C12.552 34.2254 12.0553 34.2694 11.6941 34.2694H10.3848V29.0771H11.2878ZM10.9266 31.3653H11.3781C11.6941 31.3653 12.4165 31.3213 12.4165 30.4852C12.4165 29.6492 11.5587 29.6051 11.3781 29.6051H10.9266V31.3653ZM10.9266 33.7414H11.6038C11.965 33.7414 12.2811 33.6974 12.552 33.5214C12.7777 33.3894 12.9132 33.1254 12.9132 32.8173C12.9132 32.4213 12.6874 32.1573 12.4617 32.0693C12.2811 31.9813 11.965 31.8933 11.5587 31.8933H10.9717V33.7414H10.9266Z" fill="white" />
          <path d="M20.1755 33.5033C19.8788 33.0352 19.7305 32.3542 19.7305 31.6733C19.7305 30.9498 19.8788 30.3114 20.1755 29.8432C20.5093 29.2899 20.9544 29.0771 21.2882 29.0771C21.622 29.0771 22.067 29.2899 22.4008 29.8432C22.6975 30.3114 22.8459 30.9923 22.8459 31.6733C22.8459 32.3968 22.6975 33.0352 22.4008 33.5033C22.067 34.0566 21.622 34.2694 21.2882 34.2694C20.9544 34.2694 20.5093 34.0566 20.1755 33.5033ZM20.5464 30.0986C20.3239 30.5242 20.2126 31.12 20.2126 31.6307C20.2126 32.1414 20.2868 32.7373 20.5464 33.1629C20.7689 33.5885 21.0656 33.7161 21.2882 33.7161C21.5107 33.7161 21.8074 33.5885 22.0299 33.1629C22.2524 32.7373 22.3637 32.1414 22.3637 31.6307C22.3637 31.12 22.2895 30.5242 22.0299 30.0986C21.8074 29.673 21.5107 29.5453 21.2882 29.5453C21.0656 29.5453 20.7689 29.673 20.5464 30.0986Z" fill="white" />
          <path d="M29.5212 33.5033C29.2245 33.0352 29.0762 32.3542 29.0762 31.6733C29.0762 30.9498 29.2245 30.3114 29.5212 29.8432C29.855 29.2899 30.3001 29.0771 30.6339 29.0771C30.9677 29.0771 31.4127 29.2899 31.7465 29.8432C32.0432 30.3114 32.1916 30.9923 32.1916 31.6733C32.1916 32.3968 32.0432 33.0352 31.7465 33.5033C31.4127 34.0566 30.9677 34.2694 30.6339 34.2694C30.3001 34.2694 29.855 34.0566 29.5212 33.5033ZM29.8921 30.0986C29.6696 30.5242 29.5583 31.12 29.5583 31.6307C29.5583 32.1414 29.6325 32.7373 29.8921 33.1629C30.1146 33.5885 30.4113 33.7161 30.6339 33.7161C30.8564 33.7161 31.1531 33.5885 31.3756 33.1629C31.5981 32.7373 31.7094 32.1414 31.7094 31.6307C31.7094 31.12 31.6352 30.5242 31.3756 30.0986C31.1531 29.673 30.8564 29.5453 30.6339 29.5453C30.4113 29.5453 30.1146 29.673 29.8921 30.0986Z" fill="white" />
          <path d="M41.3038 29.6051V34.2694H40.7334V29.6051H39.4609V29.0771H42.5763V29.6051H41.3038Z" fill="white" />
          <path d="M13.4139 40.6531C13.2426 40.4828 13.0285 40.3126 12.7716 40.1849C12.5146 40.0572 12.2149 39.9721 11.9151 39.9721C10.7589 39.9721 9.9024 40.9084 9.9024 42.0575C9.9024 43.4195 11.0158 44.1004 11.9579 44.1004C12.3005 44.1004 12.6431 44.0153 12.9 43.8876C13.1998 43.7599 13.4139 43.5471 13.4995 43.462V44.143C12.9428 44.526 12.3433 44.6537 11.9579 44.6537C10.4591 44.6537 9.3457 43.5046 9.3457 42.0575C9.3457 40.568 10.4591 39.4614 12.0007 39.4614C12.3005 39.4614 12.9 39.504 13.4995 39.9721V40.6531H13.4139Z" fill="white" />
          <path d="M21.7583 43.2719H19.8172L19.2737 44.6537H18.6914L20.7877 39.4614L22.8453 44.6537H22.2629L21.7583 43.2719ZM21.5642 42.7275L20.7877 40.7595L20.0113 42.7275H21.5642Z" fill="white" />
          <path d="M28.0371 44.454L28.8421 39.4614L30.6534 43.4555L32.5049 39.4614L33.2294 44.454H32.7062L32.2634 41.1789L30.6534 44.6537L29.0434 41.1789L28.5604 44.454H28.0371Z" fill="white" />
          <path d="M40.5488 39.4614C41.1423 39.4614 41.6368 39.5058 42.0324 39.8164C42.4774 40.1271 42.5763 40.6152 42.5763 40.9259C42.5763 41.6803 42.0818 42.3904 40.7467 42.3904H40.1532V44.6537H39.4609V39.4614H40.5488ZM40.1532 41.8578H40.6972C41.4884 41.8578 41.9335 41.5028 41.9335 40.9259C41.9335 40.0827 41.0434 39.9939 40.6478 39.9939H40.1532V41.8578Z" fill="white" />
          <path d="M75.6356 12.5821V15H66.9629V0H75.4664V2.41791H69.3743V6.1791H74.5357V8.55224H69.332V12.5821H75.6356Z" fill="#4520AB" />
          <path d="M87.1996 14.0323C86.7966 14.3402 86.3129 14.5601 85.7487 14.7361C85.1844 14.912 84.5798 15 83.935 15C82.7258 15 81.7988 14.5601 81.1943 13.7243C80.5897 12.8886 80.3076 11.7449 80.3076 10.2933V2.37537H76.5996V0H82.6049V9.98534C82.6049 10.8211 82.7662 11.437 83.0483 11.9208C83.3304 12.3607 83.7335 12.6246 84.2574 12.6246C85.1038 12.6246 85.9502 12.3167 86.7966 11.7449L87.1996 14.0323Z" fill="#4520AB" />
          <path d="M96.6174 4.58824C97.2247 4.98529 97.7511 5.60294 98.156 6.44118C98.5609 7.27941 98.7633 8.29412 98.7633 9.48529C98.7633 10.6765 98.5609 11.7353 98.156 12.5294C97.7511 13.3676 97.2247 13.9853 96.5769 14.3824C95.9696 14.7794 95.3218 15 94.6739 15C93.1758 15 92.1231 14.25 91.5158 12.7059C91.4753 13.8529 91.4348 14.5147 91.4348 14.7794H89.127C89.6533 12.8382 89.9367 10.8088 89.9367 8.69118V0H92.2446L92.1231 5.33824C92.7305 4.45588 93.6212 4.01471 94.7954 4.01471C95.4027 4.01471 96.0101 4.19118 96.6174 4.58824ZM95.9291 11.8235C96.2935 11.2941 96.4959 10.5 96.4959 9.48529C96.4959 8.47059 96.2935 7.67647 95.8886 7.14706C95.4837 6.61765 94.9574 6.35294 94.3095 6.35294C93.6617 6.35294 93.1758 6.66176 92.8114 7.23529C92.447 7.80882 92.2851 8.55882 92.2851 9.48529C92.2851 10.4118 92.447 11.1618 92.8114 11.7353C93.1758 12.3088 93.7022 12.6176 94.3905 12.6176C95.0383 12.6176 95.5647 12.3529 95.9291 11.8235Z" fill="#4520AB" />
          <path d="M109.362 9.14228H107.084C107.084 7.35366 106.684 6.45935 105.925 6.45935C105.206 6.45935 104.686 6.95122 104.326 7.97967C103.967 9.00813 103.767 10.3496 103.767 12.0041V15H101.489V10.2154C101.489 9.32114 101.409 8.29268 101.249 7.13008C101.089 6.0122 100.929 5.02846 100.689 4.22358H102.728C102.808 4.80488 102.888 5.78862 102.968 7.1748C103.247 6.19106 103.647 5.38618 104.207 4.84959C104.766 4.31301 105.445 4 106.245 4C107.724 4 108.643 4.80488 109.082 6.36992C109.282 7.04065 109.362 7.93496 109.362 9.14228Z" fill="#4520AB" />
          <path d="M117.588 14.7755L117.508 11.9469C117.231 12.8898 116.835 13.6531 116.32 14.1918C115.806 14.7306 115.212 15 114.499 15C113.113 15 112.162 14.3265 111.727 12.9347C111.41 11.9469 111.291 10.7347 111.291 9.29796V4H113.548V8.84898C113.548 10.1959 113.627 11.1388 113.786 11.6327C113.905 11.9469 114.024 12.1714 114.182 12.351C114.34 12.4857 114.538 12.5755 114.816 12.5755C115.528 12.5755 116.043 12.0816 116.4 11.1388C116.716 10.1959 116.914 8.93878 116.914 7.41224V4H119.172V8.53469C119.172 10.6898 119.449 12.7551 119.964 14.7306H117.588V14.7755Z" fill="#4520AB" />
          <path d="M130.032 9.96386C130.359 10.4498 130.563 11.0683 130.563 11.7751C130.563 12.747 130.195 13.5422 129.459 14.1165C128.722 14.6908 127.822 15 126.677 15C125.736 15 124.836 14.8233 123.936 14.4699C123.036 14.1165 122.382 13.6305 121.891 12.9679L123.363 11.3333C124.141 12.1727 125.245 12.6145 126.677 12.6145C127.25 12.6145 127.618 12.5261 127.863 12.3494C128.109 12.1727 128.232 11.9518 128.232 11.7309C128.232 11.5542 128.15 11.4217 128.027 11.2892C127.904 11.1566 127.7 11.0683 127.413 10.9799L124.468 9.96386C122.913 9.43373 122.136 8.50602 122.136 7.13655C122.136 6.07631 122.504 5.28112 123.282 4.751C124.018 4.22088 125 4 126.227 4C127.045 4 127.782 4.13253 128.477 4.39759C129.172 4.66265 129.745 5.01606 130.154 5.50201L128.722 7.26908C128.395 6.95984 127.986 6.73896 127.536 6.60643C127.086 6.4739 126.636 6.38554 126.227 6.38554C125.082 6.38554 124.468 6.60643 124.468 7.09237C124.468 7.26908 124.55 7.40161 124.672 7.48996C124.795 7.62249 125 7.71084 125.286 7.84337L128.232 8.85944C129.132 9.1245 129.704 9.47791 130.032 9.96386Z" fill="#4520AB" />
          <path d="M75.6356 31.4378C75.047 32.3213 74.4583 32.9839 73.8304 33.3815C73.2025 33.7791 72.4569 34 71.5936 34C70.8087 34 70.0631 33.7791 69.3567 33.3815C68.6503 32.9839 68.0617 32.3655 67.63 31.5261C67.1983 30.6867 66.9629 29.6707 66.9629 28.4779C66.9629 27.241 67.1591 26.2249 67.5908 25.3855C68.0225 24.5462 68.5719 23.9719 69.239 23.5743C69.9061 23.1767 70.6125 23 71.3974 23C72.2215 23 72.9671 23.1767 73.5557 23.5301C74.1444 23.8835 74.733 24.4578 75.3609 25.253L73.7127 26.7108C73.3595 26.2691 73.0456 25.9157 72.7316 25.6948C72.4177 25.4739 72.0253 25.3855 71.5543 25.3855C70.848 25.3855 70.2986 25.6506 69.8669 26.1807C69.4352 26.7108 69.239 27.506 69.239 28.5221C69.239 29.5382 69.4744 30.2892 69.9454 30.8193C70.4163 31.3494 71.0442 31.6145 71.7506 31.6145C72.1822 31.6145 72.5747 31.4819 72.9278 31.261C73.281 31.0402 73.6342 30.6426 73.9874 30.0683L75.6356 31.4378Z" fill="#4520AB" />
          <path d="M84.0084 23.5819C84.6726 23.9809 85.2195 24.6016 85.6102 25.4439C86.0399 26.2862 86.2352 27.3058 86.2352 28.5028C86.2352 29.6998 86.0399 30.7637 85.6102 31.5617C85.1804 32.404 84.6726 33.0247 84.0084 33.4237C83.3443 33.8227 82.6411 34 81.8989 34C81.1566 34 80.4534 33.8227 79.7893 33.4237C79.1252 33.0247 78.5782 32.404 78.1876 31.5617C77.7578 30.7194 77.5625 29.6998 77.5625 28.5028C77.5625 27.3058 77.7578 26.2419 78.1876 25.4439C78.6173 24.6016 79.1252 23.9809 79.7893 23.5819C80.4534 23.1829 81.1566 23.0056 81.8989 23.0056C82.6411 22.9613 83.3443 23.1829 84.0084 23.5819ZM83.4615 30.8524C83.8522 30.3204 84.0084 29.5224 84.0084 28.5028C84.0084 27.4832 83.8131 26.6852 83.4224 26.1532C83.0318 25.6212 82.5239 25.3552 81.8598 25.3552C81.1566 25.3552 80.6487 25.6212 80.2581 26.1532C79.8674 26.6852 79.7111 27.4832 79.7111 28.5028C79.7111 29.5224 79.9065 30.3204 80.2971 30.8524C80.6878 31.3844 81.1957 31.6504 81.8598 31.6504C82.563 31.6504 83.1099 31.3844 83.4615 30.8524Z" fill="#4520AB" />
          <path d="M95.4599 33.7801C95.4599 33.5161 95.4196 32.8123 95.3793 31.7126C94.7745 33.2522 93.7262 34 92.2344 34C91.5086 34 90.8635 33.824 90.2184 33.4721C89.6136 33.1202 89.1298 32.5044 88.7266 31.7126C88.3637 30.8768 88.1621 29.8211 88.1621 28.5455C88.1621 27.4457 88.3637 26.478 88.7669 25.6422C89.1701 24.8065 89.6943 24.1906 90.299 23.7507C90.9038 23.3109 91.549 23.0909 92.1537 23.0909C93.2827 23.0909 94.1697 23.5308 94.8148 24.4545L94.6939 19H96.9921V27.6657C96.9921 29.7771 97.2743 31.8006 97.7985 33.7361H95.4599V33.7801ZM94.1294 30.7449C94.4923 30.173 94.6536 29.4252 94.6536 28.5015C94.6536 27.6217 94.4923 26.8739 94.1294 26.2581C93.7665 25.6862 93.2827 25.3783 92.6376 25.3783C91.9925 25.3783 91.5086 25.6422 91.0651 26.1701C90.6619 26.6979 90.4603 27.4897 90.4603 28.5015C90.4603 29.5132 90.6619 30.305 91.0248 30.8328C91.3877 31.3607 91.9118 31.6246 92.5166 31.6246C93.2424 31.6246 93.7665 31.3167 94.1294 30.7449Z" fill="#4520AB" />
          <path d="M108.399 31.5866V34H99.7266V31.5866H103.212V25.6872H100.091V23.2737H105.481V31.5866H108.399ZM103.171 18.5363C103.455 18.1788 103.86 18 104.306 18C104.752 18 105.117 18.1788 105.441 18.5363C105.725 18.8939 105.887 19.3855 105.887 19.9218C105.887 20.4581 105.725 20.9497 105.441 21.2626C105.157 21.6201 104.752 21.7989 104.306 21.7989C103.86 21.7989 103.496 21.6201 103.171 21.2626C102.847 20.905 102.726 20.4134 102.726 19.8771C102.726 19.3408 102.888 18.8939 103.171 18.5363Z" fill="#4520AB" />
          <path d="M118.999 28.7469V34H116.742V29.151C116.742 27.8041 116.662 26.8612 116.504 26.3673C116.385 26.0531 116.266 25.8286 116.108 25.649C115.95 25.5143 115.752 25.4245 115.474 25.4245C114.762 25.4245 114.247 25.8735 113.89 26.7265C113.573 27.6245 113.375 28.7918 113.375 30.3184V33.9551H111.118V29.2408C111.118 27.2204 110.841 25.2 110.326 23.2245H112.583C112.583 23.6735 112.623 24.5714 112.663 25.9633C112.94 25.0204 113.336 24.302 113.851 23.7633C114.366 23.2694 114.96 23 115.672 23C117.058 23 118.009 23.6735 118.444 25.0653C118.84 26.0531 118.999 27.2653 118.999 28.7469Z" fill="#4520AB" />
          <path d="M130.562 23.1744C130.034 25.093 129.749 27.0552 129.749 29.0174V32.5058C129.749 34.4244 129.383 35.8198 128.61 36.6919C127.879 37.564 126.821 38 125.48 38C124.829 38 124.138 37.9128 123.406 37.6948C122.674 37.4767 122.105 37.1279 121.658 36.6919L122.105 34.4244C122.512 34.7733 122.999 35.0349 123.569 35.2529C124.138 35.4709 124.707 35.5581 125.276 35.5581C126.008 35.5581 126.577 35.3401 126.903 34.8605C127.228 34.3808 127.431 33.6831 127.431 32.6802V32.157C126.821 32.9855 126.008 33.4215 124.992 33.4215C124.341 33.4215 123.691 33.2471 123.081 32.8547C122.471 32.5058 121.942 31.8954 121.536 31.1105C121.129 30.3256 120.926 29.3663 120.926 28.189C120.926 27.0552 121.129 26.0959 121.576 25.311C121.983 24.5262 122.512 23.9157 123.162 23.5669C123.772 23.1744 124.382 23 124.992 23C125.764 23 126.456 23.218 126.984 23.6977C127.513 24.1773 127.919 24.8314 128.204 25.7035C128.204 25.3983 128.204 24.9622 128.245 24.3953V23.1744H130.562ZM126.903 30.282C127.269 29.7587 127.431 29.061 127.431 28.2326C127.431 27.4041 127.269 26.7064 126.903 26.1831C126.537 25.6599 126.049 25.3547 125.398 25.3547C124.748 25.3547 124.26 25.6163 123.813 26.0959C123.406 26.5756 123.203 27.3169 123.203 28.2326C123.203 29.1919 123.406 29.9331 123.772 30.4128C124.138 30.8924 124.666 31.1541 125.276 31.1541C126.008 31.0669 126.577 30.8052 126.903 30.282Z" fill="#4520AB" />
          <path d="M73.4904 42.3108C74.0978 42.6804 74.6241 43.2551 75.029 44.0352C75.4339 44.8152 75.6364 45.7595 75.6364 46.868C75.6364 47.9765 75.4339 48.9619 75.029 49.7009C74.6241 50.4809 74.0978 51.0557 73.45 51.4252C72.8426 51.7947 72.1948 52 71.547 52C70.0489 52 68.9962 51.3021 68.3888 49.8651C68.3484 50.9325 68.3079 51.5484 68.3079 51.7947H66C66.5264 49.9883 66.8098 48.0997 66.8098 46.129V38H69.1176L68.9557 42.9677C69.563 42.1466 70.4538 41.7361 71.628 41.7361C72.2353 41.7361 72.8831 41.9413 73.4904 42.3108ZM72.8021 49.044C73.1665 48.5513 73.369 47.8123 73.369 46.868C73.369 45.9238 73.1665 45.1848 72.7616 44.6921C72.3568 44.1994 71.8304 43.9531 71.1826 43.9531C70.5348 43.9531 70.0489 44.2405 69.6845 44.7742C69.3201 45.3079 69.1581 46.0059 69.1581 46.868C69.1581 47.7302 69.3201 48.4282 69.6845 48.9619C70.0489 49.4956 70.5752 49.783 71.2636 49.783C71.9114 49.783 72.3973 49.5367 72.8021 49.044Z" fill="#4520AB" />
          <path d="M84.0104 42.529C84.6745 42.8917 85.2215 43.456 85.6121 44.2217C86.0419 44.9874 86.2372 45.9144 86.2372 47.0025C86.2372 48.0907 86.0419 49.0579 85.6121 49.7834C85.1824 50.5491 84.6745 51.1134 84.0104 51.4761C83.3463 51.8388 82.6431 52 81.9008 52C81.1586 52 80.4554 51.8388 79.7912 51.4761C79.1271 51.1134 78.5802 50.5491 78.1895 49.7834C77.7598 49.0176 77.5645 48.0907 77.5645 47.0025C77.5645 45.9144 77.7598 44.9471 78.1895 44.2217C78.6192 43.456 79.1271 42.8917 79.7912 42.529C80.4554 42.1663 81.1586 42.0051 81.9008 42.0051C82.6431 41.9648 83.3463 42.1663 84.0104 42.529ZM83.4635 49.1386C83.8541 48.6549 84.0104 47.9295 84.0104 47.0025C84.0104 46.0756 83.8151 45.3502 83.4244 44.8665C83.0337 44.3829 82.5259 44.1411 81.8618 44.1411C81.1586 44.1411 80.6507 44.3829 80.26 44.8665C79.8694 45.3502 79.7131 46.0756 79.7131 47.0025C79.7131 47.9295 79.9084 48.6549 80.2991 49.1386C80.6898 49.6222 81.1976 49.864 81.8618 49.864C82.5649 49.864 83.1119 49.6222 83.4635 49.1386Z" fill="#4520AB" />
          <path d="M95.5729 42.529C96.237 42.8917 96.784 43.456 97.1746 44.2217C97.6044 44.9874 97.7997 45.9144 97.7997 47.0025C97.7997 48.0907 97.6044 49.0579 97.1746 49.7834C96.7449 50.5491 96.237 51.1134 95.5729 51.4761C94.9088 51.8388 94.2056 52 93.4633 52C92.7211 52 92.0179 51.8388 91.3537 51.4761C90.6896 51.1134 90.1427 50.5491 89.752 49.7834C89.3223 49.0176 89.127 48.0907 89.127 47.0025C89.127 45.9144 89.3223 44.9471 89.752 44.2217C90.1817 43.456 90.6896 42.8917 91.3537 42.529C92.0179 42.1663 92.7211 42.0051 93.4633 42.0051C94.2056 41.9648 94.9088 42.1663 95.5729 42.529ZM95.026 49.1386C95.4166 48.6549 95.5729 47.9295 95.5729 47.0025C95.5729 46.0756 95.3776 45.3502 94.9869 44.8665C94.5962 44.3829 94.0884 44.1411 93.4243 44.1411C92.7211 44.1411 92.2132 44.3829 91.8225 44.8665C91.4319 45.3502 91.2756 46.0756 91.2756 47.0025C91.2756 47.9295 91.4709 48.6549 91.8616 49.1386C92.2523 49.6222 92.7601 49.864 93.4243 49.864C94.1274 49.864 94.6353 49.6222 95.026 49.1386Z" fill="#4520AB" />
          <path d="M109.363 51.1278C108.929 51.4185 108.415 51.6262 107.823 51.7923C107.23 51.9585 106.598 52 105.967 52C104.703 52 103.755 51.6262 103.083 50.8371C102.412 50.0479 102.096 49.0511 102.096 47.7636V44.0671H99.7266V41.8243H102.096C102.491 41.1597 102.689 40.2045 102.768 39H104.308V41.8243H109.047V44.0671H104.308V47.5559C104.308 49.0096 104.94 49.7572 106.203 49.7572C106.638 49.7572 107.112 49.6741 107.586 49.5495C108.06 49.4249 108.534 49.2173 108.968 48.9265L109.363 51.1278Z" fill="#4520AB" />
          <path d="M119.964 49.6707C119.375 50.4739 118.786 51.0763 118.159 51.4378C117.531 51.7992 116.785 52 115.922 52C115.137 52 114.391 51.7992 113.685 51.4378C112.978 51.0763 112.39 50.5141 111.958 49.751C111.526 48.9879 111.291 48.0643 111.291 46.9799C111.291 45.8554 111.487 44.9317 111.919 44.1687C112.351 43.4056 112.9 42.8835 113.567 42.5221C114.234 42.1606 114.941 42 115.725 42C116.55 42 117.295 42.1606 117.884 42.4819C118.473 42.8032 119.061 43.3253 119.689 44.0482L118.041 45.3735C117.688 44.9719 117.374 44.6506 117.06 44.4498C116.746 44.249 116.353 44.1687 115.882 44.1687C115.176 44.1687 114.627 44.4096 114.195 44.8916C113.763 45.3735 113.567 46.0964 113.567 47.0201C113.567 47.9438 113.803 48.6265 114.273 49.1084C114.744 49.5904 115.372 49.8313 116.079 49.8313C116.51 49.8313 116.903 49.7108 117.256 49.51C117.609 49.3092 117.962 48.9478 118.316 48.4257L119.964 49.6707Z" fill="#4520AB" />
          <path d="M129.17 51.7992C129.128 51.3574 129.087 50.5542 129.087 49.4297C128.715 50.2329 128.218 50.8755 127.598 51.3173C126.978 51.759 126.233 52 125.241 52C124.538 52 123.917 51.8795 123.421 51.6386C122.925 51.3976 122.511 51.1165 122.263 50.7149C122.015 50.3534 121.891 49.9116 121.891 49.4699C121.891 48.7068 122.097 48.0643 122.552 47.502C123.007 46.9799 123.586 46.5783 124.331 46.2972C125.075 46.0161 125.861 45.8956 126.729 45.8956C127.267 45.8956 127.805 45.9357 128.384 46.0562C128.384 45.4137 128.218 44.9317 127.846 44.6104C127.474 44.2892 127.019 44.1285 126.44 44.1285C125.447 44.1285 124.496 44.4096 123.669 44.9317L122.263 43.2851C123.007 42.8032 123.71 42.4418 124.413 42.2811C125.075 42.0803 125.82 42 126.564 42C127.888 42 128.921 42.3614 129.625 43.0843C130.328 43.8072 130.7 45.0924 130.7 46.8996V47.5422C130.7 48.6265 130.989 50.0321 131.527 51.7992H129.17ZM127.308 49.3896C127.846 49.1084 128.218 48.6265 128.384 48.0241C127.97 47.9438 127.515 47.9036 126.978 47.9036C126.15 47.9036 125.489 48.0241 125.034 48.2651C124.538 48.506 124.289 48.8273 124.289 49.1888C124.289 49.3896 124.413 49.5502 124.662 49.6707C124.91 49.7912 125.199 49.8313 125.571 49.8313C126.15 49.8313 126.729 49.6707 127.308 49.3896Z" fill="#4520AB" />
          <path d="M142.57 42.898C142.93 43.4694 143.09 44.4082 143.09 45.6735V52H140.81V46.0408C140.81 45.3469 140.77 44.8571 140.69 44.6122C140.61 44.3673 140.45 44.2041 140.25 44.2041C139.89 44.2041 139.65 44.5306 139.53 45.1837C139.41 45.8367 139.33 46.8571 139.33 48.2857V52H137.05V46.0408C137.05 45.3469 137.01 44.8571 136.93 44.6122C136.85 44.3673 136.69 44.2041 136.49 44.2041C136.13 44.2041 135.89 44.5306 135.77 45.1837C135.65 45.8367 135.57 46.8571 135.57 48.2857V52H133.29V46.4898C133.29 45.7959 133.21 45.1429 133.09 44.449C132.97 43.7959 132.77 43.0204 132.49 42.2041H134.77C134.85 42.5714 134.89 43.2245 134.89 44.1633C135.09 43.4694 135.37 42.9388 135.73 42.5714C136.09 42.2041 136.53 42 137.09 42C137.57 42 137.97 42.0816 138.29 42.2857C138.61 42.4898 138.85 42.8163 139.01 43.2653C139.45 42.4082 140.05 42 140.85 42C141.65 42.0408 142.25 42.3265 142.57 42.898Z" fill="#4520AB" />
          <path d="M152.508 42.5748C153.115 42.9443 153.642 43.5191 154.047 44.2991C154.451 45.0792 154.654 46.0235 154.654 47.132C154.654 48.2405 154.451 49.2258 154.047 49.9648C153.642 50.7449 153.115 51.3196 152.468 51.6892C151.86 52.0587 151.212 52.2639 150.565 52.2639C149.552 52.2639 148.743 51.9355 148.135 51.2786V56H145.827V47.7067C145.827 45.8592 145.544 44.0117 145.018 42.2053H147.325C147.325 42.6979 147.325 43.3959 147.366 44.217C147.649 43.5191 148.095 42.9853 148.621 42.5748C149.147 42.2053 149.795 42 150.605 42C151.253 42 151.901 42.2053 152.508 42.5748ZM151.82 49.3079C152.184 48.8152 152.387 48.0762 152.387 47.132C152.387 46.1877 152.184 45.4487 151.779 44.956C151.374 44.4633 150.848 44.217 150.2 44.217C149.552 44.217 149.066 44.5044 148.702 45.0381C148.338 45.5718 148.176 46.2698 148.176 47.132C148.176 47.9941 148.338 48.6921 148.702 49.2258C149.066 49.7595 149.593 50.0469 150.281 50.0469C150.929 50.0469 151.455 49.8006 151.82 49.3079Z" fill="#4520AB" />
          <path d="M54 0H0V54H54V0Z" fill="#4520AB" />
          <path d="M13.5002 9.87419H11.038V11.4143H13.3997V11.9423H11.038V14.0104H13.4499V14.5385H10.3848V9.34616H13.4499V9.87419H13.5002Z" fill="white" />
          <path d="M20.3174 9.34616V14.0104H21.8074V14.5385H19.7305V9.34616H20.3174Z" fill="white" />
          <path d="M31.0182 9.34616C31.3343 9.34616 31.831 9.39016 32.2373 9.65418C32.4179 9.78619 32.734 10.0942 32.734 10.7102C32.734 10.9743 32.6888 11.4143 32.1922 11.7223C32.9146 11.8983 33.2306 12.5143 33.2306 13.0424C33.2306 13.5704 32.9597 13.9664 32.6888 14.1864C32.2825 14.4945 31.7858 14.5385 31.4246 14.5385H30.1152V9.34616H31.0182ZM30.657 11.6343H31.1085C31.4246 11.6343 32.147 11.5903 32.147 10.7542C32.147 9.9182 31.2891 9.87419 31.1085 9.87419H30.657V11.6343ZM30.657 14.0104H31.3343C31.6955 14.0104 32.0116 13.9664 32.2825 13.7904C32.5082 13.6584 32.6437 13.3944 32.6437 13.0864C32.6437 12.6904 32.4179 12.4263 32.1922 12.3383C32.0116 12.2503 31.6955 12.1623 31.2891 12.1623H30.7022V14.0104H30.657Z" fill="white" />
          <path d="M40.2856 9.34616C40.6521 9.34616 41.2019 9.38979 41.6142 9.65159C41.9349 9.86976 42.2098 10.2625 42.2098 10.786C42.2098 11.5714 41.66 12.1387 40.8354 12.2259L42.5763 14.5385H41.8433L40.194 12.2259H40.0565V14.4948H39.4609V9.34616H40.2856ZM40.0107 11.746H40.3772C41.1103 11.746 41.5684 11.3969 41.5684 10.786C41.5684 10.4806 41.4768 10.2188 41.1561 10.0443C40.927 9.91339 40.6521 9.91339 40.3772 9.91339H40.0107V11.746Z" fill="white" />
          <path d="M9.90202 22.8463C9.90202 23.279 9.90202 23.755 10.2358 24.1011C10.4213 24.2742 10.718 24.404 10.9405 24.404C11.163 24.404 11.4968 24.2742 11.6452 24.1011C11.9789 23.755 11.9789 23.279 11.9789 22.8463V19.7309H12.4611V23.0194C12.4611 23.4521 12.424 23.8415 12.2015 24.2309C11.9419 24.6636 11.4968 24.9232 10.9034 24.9232C10.3471 24.9232 9.90202 24.6636 9.60532 24.2309C9.38279 23.8415 9.3457 23.4521 9.3457 23.0194V19.7309H9.82785V22.8463H9.90202Z" fill="white" />
          <path d="M22.2565 19.8414C22.1723 19.7137 22.0881 19.5435 21.9618 19.4584C21.8776 19.3732 21.6671 19.2881 21.4145 19.2881C20.9093 19.2881 20.5725 19.586 20.5725 20.0542C20.5725 20.267 20.6146 20.3521 20.7409 20.4798C20.9093 20.65 21.0777 20.6926 21.2461 20.7777L21.7092 20.9905C22.0039 21.1182 22.2565 21.2459 22.467 21.4587C22.7196 21.714 22.8459 22.012 22.8459 22.3524C22.8459 23.2888 22.1723 23.8846 21.2882 23.8846C20.9514 23.8846 20.5304 23.7995 20.1936 23.459C19.941 23.2036 19.8147 22.8632 19.7305 22.5652L20.2778 22.395C20.3199 22.6504 20.4462 22.9057 20.5725 23.0334C20.783 23.2462 21.0356 23.3313 21.2882 23.3313C21.9618 23.3313 22.2986 22.8206 22.2986 22.3524C22.2986 22.1396 22.2144 21.9268 22.046 21.7566C21.9197 21.6289 21.7092 21.5438 21.4566 21.4161L20.9935 21.2033C20.783 21.1182 20.5725 20.9905 20.3199 20.7777C20.1094 20.5649 19.9831 20.3521 19.9831 19.9691C19.9831 19.203 20.5725 18.6923 21.3724 18.6923C21.6671 18.6923 21.9197 18.7349 22.1723 18.9051C22.3828 19.0328 22.5512 19.2456 22.6775 19.4584L22.2565 19.8414Z" fill="white" />
          <path d="M32.8104 18.6923L33.23 18.9139L29.4958 25.9615L29.0762 25.7399L32.8104 18.6923Z" fill="white" />
          <path d="M11.2878 29.0771C11.6038 29.0771 12.1005 29.1211 12.5068 29.3851C12.6874 29.5171 13.0035 29.8252 13.0035 30.4412C13.0035 30.7052 12.9583 31.1452 12.4617 31.4533C13.1841 31.6293 13.5002 32.2453 13.5002 32.7733C13.5002 33.2574 13.2292 33.6974 12.9583 33.9174C12.552 34.2254 12.0553 34.2694 11.6941 34.2694H10.3848V29.0771H11.2878ZM10.9266 31.3653H11.3781C11.6941 31.3653 12.4165 31.3213 12.4165 30.4852C12.4165 29.6492 11.5587 29.6051 11.3781 29.6051H10.9266V31.3653ZM10.9266 33.7414H11.6038C11.965 33.7414 12.2811 33.6974 12.552 33.5214C12.7777 33.3894 12.9132 33.1254 12.9132 32.8173C12.9132 32.4213 12.6874 32.1573 12.4617 32.0693C12.2811 31.9813 11.965 31.8933 11.5587 31.8933H10.9717V33.7414H10.9266Z" fill="white" />
          <path d="M20.1755 33.5033C19.8788 33.0352 19.7305 32.3542 19.7305 31.6733C19.7305 30.9498 19.8788 30.3114 20.1755 29.8432C20.5093 29.2899 20.9544 29.0771 21.2882 29.0771C21.622 29.0771 22.067 29.2899 22.4008 29.8432C22.6975 30.3114 22.8459 30.9923 22.8459 31.6733C22.8459 32.3968 22.6975 33.0352 22.4008 33.5033C22.067 34.0566 21.622 34.2694 21.2882 34.2694C20.9544 34.2694 20.5093 34.0566 20.1755 33.5033ZM20.5464 30.0986C20.3239 30.5242 20.2126 31.12 20.2126 31.6307C20.2126 32.1414 20.2868 32.7373 20.5464 33.1629C20.7689 33.5885 21.0656 33.7161 21.2882 33.7161C21.5107 33.7161 21.8074 33.5885 22.0299 33.1629C22.2524 32.7373 22.3637 32.1414 22.3637 31.6307C22.3637 31.12 22.2895 30.5242 22.0299 30.0986C21.8074 29.673 21.5107 29.5453 21.2882 29.5453C21.0656 29.5453 20.7689 29.673 20.5464 30.0986Z" fill="white" />
          <path d="M29.5212 33.5033C29.2245 33.0352 29.0762 32.3542 29.0762 31.6733C29.0762 30.9498 29.2245 30.3114 29.5212 29.8432C29.855 29.2899 30.3001 29.0771 30.6339 29.0771C30.9677 29.0771 31.4127 29.2899 31.7465 29.8432C32.0432 30.3114 32.1916 30.9923 32.1916 31.6733C32.1916 32.3968 32.0432 33.0352 31.7465 33.5033C31.4127 34.0566 30.9677 34.2694 30.6339 34.2694C30.3001 34.2694 29.855 34.0566 29.5212 33.5033ZM29.8921 30.0986C29.6696 30.5242 29.5583 31.12 29.5583 31.6307C29.5583 32.1414 29.6325 32.7373 29.8921 33.1629C30.1146 33.5885 30.4113 33.7161 30.6339 33.7161C30.8564 33.7161 31.1531 33.5885 31.3756 33.1629C31.5981 32.7373 31.7094 32.1414 31.7094 31.6307C31.7094 31.12 31.6352 30.5242 31.3756 30.0986C31.1531 29.673 30.8564 29.5453 30.6339 29.5453C30.4113 29.5453 30.1146 29.673 29.8921 30.0986Z" fill="white" />
          <path d="M41.3038 29.6051V34.2694H40.7334V29.6051H39.4609V29.0771H42.5763V29.6051H41.3038Z" fill="white" />
          <path d="M13.4139 40.6531C13.2426 40.4828 13.0285 40.3126 12.7716 40.1849C12.5146 40.0572 12.2149 39.9721 11.9151 39.9721C10.7589 39.9721 9.9024 40.9084 9.9024 42.0575C9.9024 43.4195 11.0158 44.1004 11.9579 44.1004C12.3005 44.1004 12.6431 44.0153 12.9 43.8876C13.1998 43.7599 13.4139 43.5471 13.4995 43.462V44.143C12.9428 44.526 12.3433 44.6537 11.9579 44.6537C10.4591 44.6537 9.3457 43.5046 9.3457 42.0575C9.3457 40.568 10.4591 39.4614 12.0007 39.4614C12.3005 39.4614 12.9 39.504 13.4995 39.9721V40.6531H13.4139Z" fill="white" />
          <path d="M21.7583 43.2719H19.8172L19.2737 44.6537H18.6914L20.7877 39.4614L22.8453 44.6537H22.2629L21.7583 43.2719ZM21.5642 42.7275L20.7877 40.7595L20.0113 42.7275H21.5642Z" fill="white" />
          <path d="M28.0371 44.454L28.8421 39.4614L30.6534 43.4555L32.5049 39.4614L33.2294 44.454H32.7062L32.2634 41.1789L30.6534 44.6537L29.0434 41.1789L28.5604 44.454H28.0371Z" fill="white" />
          <path d="M40.5488 39.4614C41.1423 39.4614 41.6368 39.5058 42.0324 39.8164C42.4774 40.1271 42.5763 40.6152 42.5763 40.9259C42.5763 41.6803 42.0818 42.3904 40.7467 42.3904H40.1532V44.6537H39.4609V39.4614H40.5488ZM40.1532 41.8578H40.6972C41.4884 41.8578 41.9335 41.5028 41.9335 40.9259C41.9335 40.0827 41.0434 39.9939 40.6478 39.9939H40.1532V41.8578Z" fill="white" />
        </svg>